#define song_size 174
#define tempo 50
#define song_name Raiders March

int melody[] = {
    NOTE_F4, NOTE_PAUSE, NOTE_C3, NOTE_A4, NOTE_A3, NOTE_F3, NOTE_C5, NOTE_A4, NOTE_A3, NOTE_F3, NOTE_F4, NOTE_E4, NOTE_PAUSE, NOTE_C3, NOTE_G4, NOTE_A3, NOTE_F3, NOTE_E4, NOTE_C4, NOTE_A3, NOTE_F3, NOTE_C4, NOTE_F4, NOTE_PAUSE, NOTE_C3, NOTE_A4, NOTE_A3, NOTE_F3, NOTE_C5, NOTE_A4, NOTE_A3, NOTE_F3, NOTE_F4, NOTE_E4, NOTE_G3, NOTE_C3, NOTE_F4, NOTE_A3, NOTE_C3, NOTE_F4, NOTE_PAUSE, NOTE_C3, NOTE_A4, NOTE_A3, NOTE_F3, NOTE_C5, NOTE_A4, NOTE_A3, NOTE_F3, NOTE_F4, NOTE_E4, NOTE_PAUSE, NOTE_C3, NOTE_G4, NOTE_A3, NOTE_F3, NOTE_E4, NOTE_C4, NOTE_A3, NOTE_F3, NOTE_C4, NOTE_F4, NOTE_PAUSE, NOTE_C3, NOTE_A4, NOTE_A3, NOTE_F3, NOTE_C5, NOTE_A4, NOTE_A3, NOTE_F3, NOTE_F4, NOTE_E4, NOTE_G3, NOTE_C3, NOTE_F4, NOTE_A3, NOTE_C3, NOTE_AS4, NOTE_PAUSE, NOTE_D3, NOTE_AS4, NOTE_AS4, NOTE_AS3, NOTE_F3, NOTE_AS4, NOTE_AS4, NOTE_AS3, NOTE_F3, NOTE_AS4, NOTE_A4, NOTE_PAUSE, NOTE_C3, NOTE_A4, NOTE_A3, NOTE_F3, NOTE_A4, NOTE_A4, NOTE_A3, NOTE_F3, NOTE_G4, NOTE_PAUSE, NOTE_C3, NOTE_G4, NOTE_G3, NOTE_E3, NOTE_G4, NOTE_G4, NOTE_G3, NOTE_E3, NOTE_G4, NOTE_F4, NOTE_PAUSE, NOTE_C3, NOTE_G4, NOTE_A4, NOTE_A3, NOTE_F3, NOTE_AS4, NOTE_C5, NOTE_A3, NOTE_F3, NOTE_AS4, NOTE_PAUSE, NOTE_D3, NOTE_D5, NOTE_D5, NOTE_AS3, NOTE_F3, NOTE_D5, NOTE_D5, NOTE_AS3, NOTE_F3, NOTE_AS4, NOTE_A4, NOTE_PAUSE, NOTE_C3, NOTE_C5, NOTE_C5, NOTE_A3, NOTE_F3, NOTE_C5, NOTE_C5, NOTE_A3, NOTE_F3, NOTE_A4, NOTE_G4, NOTE_PAUSE, NOTE_C3, NOTE_G4, NOTE_G4, NOTE_G3, NOTE_E3, NOTE_A4, NOTE_AS4, NOTE_G3, NOTE_E3, NOTE_E4, NOTE_G4, NOTE_E3, NOTE_C3, NOTE_F4, NOTE_A3, NOTE_C3, NOTE_A4, NOTE_F3, NOTE_C3, NOTE_E4, NOTE_G4, NOTE_E3, NOTE_C3, NOTE_F4, NOTE_A3, NOTE_C3
};

int rhythm[] = {
    4, 4, 4, 8, 4, 4, 8, 8, 4, 4, 8, 4, 4, 4, 8, 4, 4, 8, 8, 4, 4, 8, 4, 4, 4, 8, 4, 4, 8, 8, 4, 4, 8, 4, 4, 4, 2, 2, 2, 4, 4, 4, 8, 4, 4, 8, 8, 4, 4, 8, 4, 4, 4, 8, 4, 4, 8, 8, 4, 4, 8, 4, 4, 4, 8, 4, 4, 8, 8, 4, 4, 8, 4, 4, 4, 2, 2, 2, 8, 4, 4, 8, 8, 4, 4, 8, 8, 4, 4, 8, 4, 4, 4, 8, 4, 4, 8, 4, 4, 4, 4, 4, 4, 8, 4, 4, 8, 8, 4, 4, 8, 8, 4, 4, 8, 8, 4, 4, 8, 4, 4, 4, 8, 4, 4, 8, 8, 4, 4, 8, 8, 4, 4, 8, 8, 4, 4, 8, 8, 4, 4, 8, 8, 4, 4, 8, 8, 4, 4, 8, 8, 4, 4, 8, 8, 4, 4, 8, 4, 4, 4, 4, 4, 4, 8, 4, 4, 8, 4, 4, 4, 2, 2, 2
};

int pins[] = {
    D5, D7, D8, D5, D7, D8, D5, D5, D7, D8, D5, D5, D7, D8, D5, D7, D8, D5, D5, D7, D8, D5, D5, D7, D8, D5, D7, D8, D5, D5, D7, D8, D5, D5, D7, D8, D5, D7, D8, D5, D7, D8, D5, D7, D8, D5, D5, D7, D8, D5, D5, D7, D8, D5, D7, D8, D5, D5, D7, D8, D5, D5, D7, D8, D5, D7, D8, D5, D5, D7, D8, D5, D5, D7, D8, D5, D7, D8, D5, D7, D8, D5, D5, D7, D8, D5, D5, D7, D8, D5, D5, D7, D8, D5, D7, D8, D5, D5, D7, D8, D5, D7, D8, D5, D7, D8, D5, D5, D7, D8, D5, D5, D7, D8, D5, D5, D7, D8, D5, D5, D7, D8, D5, D7, D8, D5, D5, D7, D8, D5, D5, D7, D8, D5, D5, D7, D8, D5, D5, D7, D8, D5, D5, D7, D8, D5, D5, D7, D8, D5, D5, D7, D8, D5, D5, D7, D8, D5, D5, D7, D8, D5, D7, D8, D5, D7, D8, D5, D5, D7, D8, D5, D7, D8
};

float waits[] = {
    0.0, 0.0, 0.25, 0.0, 0.0, 0.125, 0.125, 0.0, 0.0, 0.125, 0.125, 0.0, 0.0, 0.25, 0.0, 0.0, 0.125, 0.125, 0.0, 0.0, 0.125, 0.125, 0.0, 0.0, 0.25, 0.0, 0.0, 0.125, 0.125, 0.0, 0.0, 0.125, 0.125, 0.0, 0.0, 0.25, 0.0, 0.0, 0.5, 0.0, 0.0, 0.25, 0.0, 0.0, 0.125, 0.125, 0.0, 0.0, 0.125, 0.125, 0.0, 0.0, 0.25, 0.0, 0.0, 0.125, 0.125, 0.0, 0.0, 0.125, 0.125, 0.0, 0.0, 0.25, 0.0, 0.0, 0.125, 0.125, 0.0, 0.0, 0.125, 0.125, 0.0, 0.0, 0.25, 0.0, 0.0, 0.5, 0.0, 0.0, 0.125, 0.125, 0.0, 0.0, 0.125, 0.125, 0.0, 0.0, 0.125, 0.125, 0.0, 0.0, 0.25, 0.0, 0.0, 0.125, 0.125, 0.0, 0.0, 0.25, 0.0, 0.0, 0.25, 0.0, 0.0, 0.125, 0.125, 0.0, 0.0, 0.125, 0.125, 0.0, 0.0, 0.125, 0.125, 0.0, 0.0, 0.125, 0.125, 0.0, 0.0, 0.25, 0.0, 0.0, 0.125, 0.125, 0.0, 0.0, 0.125, 0.125, 0.0, 0.0, 0.125, 0.125, 0.0, 0.0, 0.125, 0.125, 0.0, 0.0, 0.125, 0.125, 0.0, 0.0, 0.125, 0.125, 0.0, 0.0, 0.125, 0.125, 0.0, 0.0, 0.125, 0.125, 0.0, 0.0, 0.125, 0.125, 0.0, 0.0, 0.25, 0.0, 0.0, 0.25, 0.0, 0.0, 0.125, 0.125, 0.0, 0.0, 0.25, 0.0, 0.0, 0.0
};
