#define song_size 74
#define tempo 40
#define song_name Imperial March

int melody[] = {
    NOTE_A4, NOTE_E4, NOTE_A4, NOTE_E4, NOTE_A4, NOTE_E4, NOTE_F4, NOTE_GS4, NOTE_F4, NOTE_C5, NOTE_A4, NOTE_E4, NOTE_F4, NOTE_GS4, NOTE_F4, NOTE_C5, NOTE_A4, NOTE_E4, NOTE_E5, NOTE_C5, NOTE_E5, NOTE_E5, NOTE_C5, NOTE_F5, NOTE_F5, NOTE_C5, NOTE_GS4, NOTE_C5, NOTE_F4, NOTE_GS4, NOTE_F4, NOTE_C5, NOTE_A4, NOTE_GS3, NOTE_F4, NOTE_A5, NOTE_A4, NOTE_A4, NOTE_A4, NOTE_A4, NOTE_A4, NOTE_A5, NOTE_A4, NOTE_GS5, NOTE_A4, NOTE_G5, NOTE_FS5, NOTE_DS4, NOTE_F5, NOTE_FS5, NOTE_PAUSE, NOTE_DS4, NOTE_AS4, NOTE_DS4, NOTE_DS4, NOTE_D4, NOTE_DS4, NOTE_CS4, NOTE_C4, NOTE_F4, NOTE_B4, NOTE_C4, NOTE_PAUSE, NOTE_F4, NOTE_F4, NOTE_F4, NOTE_GS4, NOTE_F4, NOTE_F4, NOTE_C5, NOTE_A4, NOTE_F4, NOTE_F4, NOTE_C5
};

int rhythm[] = {
    4, 4, 4, 4, 4, 4, 8, 4, 16, 16, 4, 4, 8, 4, 16, 16, 2, 2, 4, 2, 4, 4, 2, 8, 16, 16, 4, 4, 8, 4, 16, 16, 2, 4, 4, 4, 4, 8, 4, 16, 16, 4, 4, 8, 4, 8, 16, 4, 16, 8, 8, 4, 8, 4, 4, 8, 4, 8, 16, 4, 16, 8, 8, 4, 4, 2, 8, 16, 16, 4, 8, 16, 16, 2
};

int pins[] = {
    D5, D7, D5, D7, D5, D7, D5, D7, D5, D5, D5, D7, D5, D7, D5, D5, D5, D7, D5, D7, D5, D5, D7, D5, D5, D5, D5, D7, D5, D7, D5, D5, D5, D7, D7, D5, D7, D5, D7, D5, D5, D5, D7, D5, D7, D5, D5, D7, D5, D5, D5, D7, D5, D5, D7, D5, D7, D5, D5, D7, D5, D5, D5, D7, D5, D7, D5, D5, D5, D5, D5, D5, D5, D5
};

float waits[] = {
    0.0, 0.25, 0.0, 0.25, 0.0, 0.25, 0.0, 0.125, 0.0625, 0.0625, 0.0, 0.25, 0.0, 0.125, 0.0625, 0.0625, 0.0, 0.5, 0.0, 0.25, 0.25, 0.0, 0.25, 0.125, 0.0625, 0.0625, 0.0, 0.25, 0.0, 0.125, 0.0625, 0.0625, 0.0, 0.25, 0.25, 0.0, 0.25, 0.0, 0.125, 0.0625, 0.0625, 0.0, 0.25, 0.0, 0.125, 0.125, 0.0, 0.0625, 0.0625, 0.125, 0.0, 0.125, 0.125, 0.0, 0.25, 0.0, 0.125, 0.125, 0.0, 0.0625, 0.0625, 0.125, 0.0, 0.125, 0.125, 0.125, 0.125, 0.0625, 0.0625, 0.25, 0.125, 0.0625, 0.0625, 0.0
};
