#define song_size 128
#define tempo 40
#define song_name Raiders March

int melody[] = {
    NOTE_E4, NOTE_PAUSE, NOTE_PAUSE, NOTE_E4, NOTE_F4, NOTE_G4, NOTE_PAUSE, NOTE_C3, NOTE_C5, NOTE_C5, NOTE_C3, NOTE_C3, NOTE_C3, NOTE_D4, NOTE_C3, NOTE_D4, NOTE_E4, NOTE_F4, NOTE_E4, NOTE_C3, NOTE_C3, NOTE_C3, NOTE_F4, NOTE_E4, NOTE_C3, NOTE_G4, NOTE_PAUSE, NOTE_C3, NOTE_G4, NOTE_A4, NOTE_B4, NOTE_PAUSE, NOTE_C3, NOTE_F5, NOTE_F5, NOTE_C3, NOTE_C3, NOTE_C3, NOTE_A4, NOTE_C3, NOTE_A4, NOTE_B4, NOTE_C5, NOTE_E4, NOTE_C3, NOTE_D5, NOTE_G4, NOTE_C3, NOTE_E5, NOTE_C5, NOTE_C3, NOTE_E4, NOTE_PAUSE, NOTE_PAUSE, NOTE_E4, NOTE_F4, NOTE_G4, NOTE_PAUSE, NOTE_C3, NOTE_C5, NOTE_C5, NOTE_PAUSE, NOTE_C3, NOTE_C3, NOTE_C3, NOTE_D5, NOTE_G4, NOTE_C3, NOTE_D5, NOTE_G4, NOTE_E5, NOTE_C5, NOTE_F5, NOTE_GS4, NOTE_CS3, NOTE_CS3, NOTE_CS3, NOTE_GS2, NOTE_F5, NOTE_GS4, NOTE_CS3, NOTE_CS3, NOTE_G4, NOTE_PAUSE, NOTE_PAUSE, NOTE_G4, NOTE_G4, NOTE_E5, NOTE_C5, NOTE_F4, NOTE_D5, NOTE_C5, NOTE_G3, NOTE_D5, NOTE_C5, NOTE_G4, NOTE_PAUSE, NOTE_E5, NOTE_C5, NOTE_F4, NOTE_D5, NOTE_C5, NOTE_G3, NOTE_D5, NOTE_C5, NOTE_G4, NOTE_PAUSE, NOTE_E5, NOTE_C5, NOTE_F4, NOTE_D5, NOTE_C5, NOTE_G3, NOTE_D5, NOTE_C5, NOTE_G4, NOTE_PAUSE, NOTE_E5, NOTE_C5, NOTE_F4, NOTE_D5, NOTE_PAUSE, NOTE_C5, NOTE_G4, NOTE_E4, NOTE_C5, NOTE_G4, NOTE_E4
};

int rhythm[] = {
    8, 4, 4, 16, 16, 8, 1, 4, 8, 2, 8, 8, 4, 8, 4, 16, 16, 2, 2, 4, 8, 8, 4, 4, 4, 8, 4, 4, 16, 16, 8, 1, 4, 8, 2, 8, 8, 4, 8, 4, 16, 16, 4, 4, 4, 4, 4, 4, 4, 4, 4, 8, 4, 4, 16, 16, 8, 4, 4, 8, 2, 2, 8, 8, 4, 8, 8, 4, 16, 16, 16, 16, 2, 2, 4, 8, 16, 16, 4, 4, 8, 8, 8, 4, 4, 16, 16, 4, 4, 4, 8, 8, 4, 16, 16, 16, 16, 4, 4, 4, 8, 8, 4, 16, 16, 16, 16, 4, 4, 4, 8, 8, 4, 16, 16, 16, 16, 8, 8, 4, 8, 8, 4, 4, 4, 1, 1, 1
};

int pins[] = {
    D5, D7, D8, D5, D5, D5, D7, D8, D5, D5, D8, D8, D8, D5, D8, D5, D5, D5, D7, D8, D8, D8, D5, D7, D8, D5, D7, D8, D5, D5, D5, D7, D8, D5, D5, D8, D8, D8, D5, D8, D5, D5, D5, D7, D8, D5, D7, D8, D5, D7, D8, D5, D7, D8, D5, D5, D5, D7, D8, D5, D5, D7, D8, D8, D8, D5, D7, D8, D5, D7, D5, D7, D5, D7, D8, D8, D8, D8, D5, D7, D8, D8, D5, D7, D8, D5, D5, D5, D7, D8, D5, D7, D8, D5, D7, D5, D7, D5, D7, D8, D5, D7, D8, D5, D7, D5, D7, D5, D7, D8, D5, D7, D8, D5, D7, D5, D7, D5, D7, D8, D5, D7, D5, D7, D8, D5, D7, D8
};

float waits[] = {
    0.0, 0.0, 0.125, 0.0625, 0.0625, 0.0, 0.0, 0.125, 0.125, 0.0, 0.125, 0.125, 0.25, 0.0, 0.125, 0.0625, 0.0625, 0.0, 0.0, 0.25, 0.125, 0.125, 0.0, 0.0, 0.25, 0.0, 0.0, 0.125, 0.0625, 0.0625, 0.0, 0.0, 0.125, 0.125, 0.0, 0.125, 0.125, 0.25, 0.0, 0.125, 0.0625, 0.0625, 0.0, 0.0, 0.25, 0.0, 0.0, 0.25, 0.0, 0.0, 0.25, 0.0, 0.0, 0.125, 0.0625, 0.0625, 0.0, 0.0, 0.125, 0.125, 0.0, 0.0, 0.125, 0.125, 0.25, 0.0, 0.0, 0.125, 0.0, 0.0625, 0.0, 0.0625, 0.0, 0.0, 0.25, 0.125, 0.0625, 0.0625, 0.0, 0.0, 0.125, 0.125, 0.0, 0.0, 0.125, 0.0625, 0.0625, 0.0, 0.0, 0.25, 0.0, 0.0, 0.125, 0.0, 0.0625, 0.0, 0.0625, 0.0, 0.0, 0.25, 0.0, 0.0, 0.125, 0.0, 0.0625, 0.0, 0.0625, 0.0, 0.0, 0.25, 0.0, 0.0, 0.125, 0.0, 0.0625, 0.0, 0.0625, 0.0, 0.0, 0.125, 0.0, 0.125, 0.0, 0.0, 0.25, 0.0, 0.0, 0.0
};
